# xmcd
# 
# Track frame offsets:
#     150
#     15131
#     41715
#     63454
# 
# Disc length: 1197
# 
# Revision: 0
# Processed by: cddbd v1.5.2PL0 Copyright (c) Steve Scherf et al.
# Submitted via: fre:ac v1.0.31
# 
DISCID=2704ab04
DTITLE=Tatjana - Santa Maria
DYEAR=0
DGENRE=
TTITLE0=Santa Maria [Radio Edit]
TTITLE1=Santa Maria [Wah-Hey Mix]
TTITLE2=Santa Maria [Harry Ola Mix]
TTITLE3=Santa Maria [Harry Ola Instrumental]
EXTD=
EXTT0=
EXTT1=
EXTT2=
EXTT3=
PLAYORDER=
